HIERARCHY
ROOT Hips
{
	OFFSET 0.00000 0.00000 0.00000
	CHANNELS 6 Xposition Yposition Zposition Zrotation Yrotation Xrotation 
	JOINT LHipJoint
	{
		OFFSET 0 0 0
		CHANNELS 3 Zrotation Yrotation Xrotation
		JOINT LeftUpLeg
		{
			OFFSET 1.62964 -1.40469 0.78906
			CHANNELS 3 Zrotation Yrotation Xrotation
			JOINT LeftLeg
			{
				OFFSET 2.29640 -6.30932 0.00000
				CHANNELS 3 Zrotation Yrotation Xrotation
				JOINT LeftFoot
				{
					OFFSET 2.29451 -6.30412 0.00000
					CHANNELS 3 Zrotation Yrotation Xrotation
					JOINT LeftToeBase
					{
						OFFSET 0.03611 -0.09921 1.56387
						CHANNELS 3 Zrotation Yrotation Xrotation
						End Site
						{
							OFFSET 0.00000 -0.00000 0.80291
						}
					}
				}
			}
		}
	}
	JOINT RHipJoint
	{
		OFFSET 0 0 0
		CHANNELS 3 Zrotation Yrotation Xrotation
		JOINT RightUpLeg
		{
			OFFSET -1.73712 -1.40469 0.78906
			CHANNELS 3 Zrotation Yrotation Xrotation
			JOINT RightLeg
			{
				OFFSET -2.28137 -6.26801 0.00000
				CHANNELS 3 Zrotation Yrotation Xrotation
				JOINT RightFoot
				{
					OFFSET -2.28681 -6.28298 0.00000
					CHANNELS 3 Zrotation Yrotation Xrotation
					JOINT RightToeBase
					{
						OFFSET -0.15927 -0.43759 1.61103
						CHANNELS 3 Zrotation Yrotation Xrotation
						End Site
						{
							OFFSET -0.00000 -0.00000 0.84630
						}
					}
				}
			}
		}
	}
	JOINT LowerBack
	{
		OFFSET 0 0 0
		CHANNELS 3 Zrotation Yrotation Xrotation
		JOINT Spine
		{
			OFFSET -0.04227 2.04338 -0.00225
			CHANNELS 3 Zrotation Yrotation Xrotation
			JOINT Spine1
			{
				OFFSET -0.02148 2.04482 -0.04273
				CHANNELS 3 Zrotation Yrotation Xrotation
				JOINT Neck
				{
					OFFSET 0 0 0
					CHANNELS 3 Zrotation Yrotation Xrotation
					JOINT Neck1
					{
						OFFSET 0.09180 1.44629 0.19359
						CHANNELS 3 Zrotation Yrotation Xrotation
						JOINT Head
						{
							OFFSET 0.00887 1.40645 0.14750
							CHANNELS 3 Zrotation Yrotation Xrotation
							End Site
							{
								OFFSET -0.00669 1.50671 0.03707
							}
						}
					}
				}
				JOINT LeftShoulder
				{
					OFFSET 0 0 0
					CHANNELS 3 Zrotation Yrotation Xrotation
					JOINT LeftArm
					{
						OFFSET 2.17674 1.86763 -0.06520
						CHANNELS 3 Zrotation Yrotation Xrotation
						JOINT LeftForeArm
						{
							OFFSET 4.65776 -0.00000 0.00000
							CHANNELS 3 Zrotation Yrotation Xrotation
							JOINT LeftHand
							{
								OFFSET 3.55539 -0.00000 0.00000
								CHANNELS 3 Zrotation Yrotation Xrotation
								JOINT LeftFingerBase
								{
									OFFSET 0 0 0
									CHANNELS 3 Zrotation Yrotation Xrotation
									JOINT LeftHandIndex1
									{
										OFFSET 0.70726 -0.00000 0.00000
										CHANNELS 3 Zrotation Yrotation Xrotation
										End Site
										{
											OFFSET 0.57022 -0.00000 0.00000
										}
									}
								}
								JOINT LThumb
								{
									OFFSET 0 0 0
									CHANNELS 3 Zrotation Yrotation Xrotation
									End Site
									{
										OFFSET 0.57892 -0.00000 0.57892
									}
								}
							}
						}
					}
				}
				JOINT RightShoulder
				{
					OFFSET 0 0 0
					CHANNELS 3 Zrotation Yrotation Xrotation
					JOINT RightArm
					{
						OFFSET -2.80694 1.55459 -0.32496
						CHANNELS 3 Zrotation Yrotation Xrotation
						JOINT RightForeArm
						{
							OFFSET -4.71925 -0.00000 -0.00000
							CHANNELS 3 Zrotation Yrotation Xrotation
							JOINT RightHand
							{
								OFFSET -3.56990 -0.00000 0.00000
								CHANNELS 3 Zrotation Yrotation Xrotation
								JOINT RightFingerBase
								{
									OFFSET 0 0 0
									CHANNELS 3 Zrotation Yrotation Xrotation
									JOINT RightHandIndex1
									{
										OFFSET -0.50776 -0.00000 0.00000
										CHANNELS 3 Zrotation Yrotation Xrotation
										End Site
										{
											OFFSET -0.40937 -0.00000 0.00000
										}
									}
								}
								JOINT RThumb
								{
									OFFSET 0 0 0
									CHANNELS 3 Zrotation Yrotation Xrotation
									End Site
									{
										OFFSET -0.41562 -0.00000 0.41562
									}
								}
							}
						}
					}
				}
			}
		}
	}
}
MOTION
Frames: 6
Frame Time: .0083333
5.1365 16.9369 15.5238 189.4280 -26.6599 -158.7900 0.0000 0.0000 0.0000 23.3950 -30.7569 -14.9790 3.6268 11.6464 34.4924 4.1891 -5.6355 -37.6961 5.7767 -14.2084 -44.0789 0.0000 0.0000 0.0000 -15.6470 14.9890 -30.7735 -0.0400 -1.2903 3.5479 3.7211 -35.8850 -33.1440 -5.1605 -13.5623 41.5115 -19.9800 -9.6811 -15.7219 -3.3258 -9.3133 1.3760 4.4287 -5.7230 13.0484 -0.3088 -4.9706 -2.4910 8.7199 -11.0438 22.9656 1.9593 -5.3729 8.0329 -0.0000 -0.0000 0.0000 -21.2987 10.4640 39.1271 36.6242 -45.9377 -15.9694 -0.0000 0.0000 -11.1057 25.5797 -15.1120 -7.1135 -7.1250 0.0000 -0.0000 -1.3545 13.3160 1.0064 -0.0000 -0.0000 0.0000 80.7484 -45.5688 -9.9214 -48.4987 52.3717 -24.9801 0.0000 -0.0000 -13.8283 -12.6057 -52.9992 10.1261 7.1250 -0.0000 -0.0000 66.5505 -75.9610 -52.7143
5.2585 16.8326 15.4237 188.3380 -27.0797 -158.1370 0.0000 0.0000 0.0000 23.3516 -30.7579 -15.3155 3.5937 11.5992 34.3285 4.1929 -5.0264 -37.8105 6.5038 -14.8994 -46.9715 0.0000 0.0000 0.0000 -15.3749 13.6447 -31.3937 -0.0722 -1.7337 4.7704 4.8735 -37.4587 -29.0469 -4.7399 -13.0847 39.6864 -19.9519 -9.6370 -15.5041 -3.4654 -9.2904 1.5314 4.2773 -5.7178 13.0731 -0.3317 -5.0650 -3.1803 8.6473 -11.0809 22.9487 1.9122 -5.3388 8.1506 -0.0000 -0.0000 0.0000 -21.2777 9.9192 38.8881 36.0741 -45.5640 -15.5754 -0.0000 0.0000 -10.9310 25.2396 -14.9699 -6.9428 -7.1250 0.0000 -0.0000 -1.5723 13.5162 1.1617 -0.0000 -0.0000 0.0000 81.9162 -45.5473 -10.0587 -47.1881 51.7965 -23.9461 0.0000 -0.0000 -12.2383 -12.1926 -52.7089 9.7539 7.1250 -0.0000 -0.0000 65.6161 -75.7141 -51.5970
5.3791 16.7250 15.3254 187.2900 -27.5251 -157.5030 0.0000 0.0000 0.0000 23.4084 -30.7978 -15.7218 3.5812 11.5813 34.2663 4.2049 -5.7357 -37.7562 6.4431 -14.8444 -46.7350 0.0000 0.0000 0.0000 -15.0147 12.4624 -31.8489 -0.1107 -2.1450 5.9067 5.6787 -38.5845 -25.1561 -4.4476 -12.7334 38.3784 -19.9438 -9.5963 -15.1928 -3.5840 -9.3693 1.2407 4.2004 -5.7202 12.5321 -0.3894 -5.0770 -2.2248 8.5217 -11.0478 22.7353 1.9241 -5.3889 7.8980 0.0000 -0.0000 0.0000 -21.2581 9.9721 39.3527 35.5632 -45.2101 -15.2117 -0.0000 0.0000 -10.6267 24.8301 -15.3630 -6.9887 -7.1250 0.0000 -0.0000 -1.8783 13.1434 1.4028 0.0000 -0.0000 0.0000 82.8265 -46.4870 -9.7950 -46.0669 51.2806 -23.0682 0.0000 -0.0000 -10.8867 -12.0777 -52.4588 9.6293 7.1250 -0.0000 -0.0000 64.7291 -75.5894 -50.6603
5.5027 16.6140 15.2196 186.3400 -27.9498 -156.9540 0.0000 0.0000 0.0000 23.5664 -30.7542 -16.0806 3.5729 11.5692 34.2247 4.2284 -6.6927 -37.7356 6.2918 -14.7053 -46.1419 0.0000 0.0000 0.0000 -14.2972 11.1079 -32.4792 -0.1733 -2.6816 7.3937 6.1322 -39.1944 -21.0523 -4.2183 -12.4453 37.3261 -19.7793 -9.5590 -14.8693 -3.6028 -9.4590 1.0533 4.1441 -5.7261 12.1090 -0.7325 -5.1110 -1.9216 8.3944 -11.0274 22.7471 1.9540 -5.4213 7.8538 -0.0000 -0.0000 0.0000 -21.4926 10.0339 39.5355 34.9753 -44.7945 -14.7960 -0.0000 0.0000 -10.2258 24.6768 -16.0257 -7.2289 -7.1250 0.0000 -0.0000 -2.0328 12.4465 1.5479 -0.0000 -0.0000 0.0000 83.4450 -47.0597 -9.3425 -45.0196 50.7781 -22.2539 0.0000 -0.0000 -9.8748 -11.6772 -51.8414 9.2304 7.1250 -0.0000 -0.0000 62.6797 -75.2208 -48.4303
5.6264 16.4973 15.1136 185.2930 -28.3207 -156.3400 0.0000 0.0000 0.0000 23.6209 -30.6562 -16.4852 3.5842 11.5856 34.2812 4.2535 -7.3203 -37.7785 6.3390 -14.7490 -46.3275 0.0000 0.0000 0.0000 -13.1799 8.9556 -33.7430 -0.3029 -3.5388 9.7826 5.4969 -37.4187 -17.9055 -3.4245 -11.3524 33.4779 -19.6078 -9.5115 -14.6915 -3.6347 -9.4602 1.0868 4.0476 -5.7128 12.0121 -1.0414 -5.2243 -2.5285 8.1486 -11.0863 23.0121 1.8945 -5.4376 8.0552 0.0000 0.0000 0.0000 -21.7074 9.8742 39.4590 34.4359 -44.4051 -14.4172 -0.0000 0.0000 -10.1336 24.9180 -16.4272 -7.4845 -7.1250 0.0000 -0.0000 -1.9048 11.9782 1.4689 0.0000 0.0000 0.0000 84.0840 -47.1034 -8.8688 -44.1089 50.3244 -21.5507 0.0000 -0.0000 -8.9442 -10.8361 -51.4279 8.5112 7.1250 -0.0000 -0.0000 61.7136 -74.7437 -47.0671
5.7482 16.3788 15.0122 184.2160 -28.6119 -155.6190 0.0000 0.0000 0.0000 23.6477 -30.5166 -17.0072 3.6238 11.6422 34.4777 4.2604 -7.7418 -37.7654 6.4091 -14.8134 -46.6023 0.0000 0.0000 0.0000 -11.5981 6.0506 -35.7059 -0.5436 -4.7237 13.1222 3.2609 -30.7681 -20.0472 -2.1068 -9.0850 26.0617 -19.4376 -9.5565 -14.6319 -3.5967 -9.5309 1.2612 3.9660 -5.7482 12.1839 -1.4760 -5.3257 -3.6530 7.9690 -11.0943 23.3115 1.8611 -5.4041 8.3715 -0.0000 -0.0000 0.0000 -22.1186 9.7673 38.8990 33.9411 -44.0411 -14.0721 -0.0000 0.0000 -10.1886 25.1738 -16.6720 -7.6795 -7.1250 0.0000 -0.0000 -1.7558 11.6764 1.3648 -0.0000 -0.0000 0.0000 84.1883 -46.6069 -7.7899 -43.1687 49.8391 -20.8296 0.0000 -0.0000 -8.0362 -10.0347 -51.6092 7.8961 7.1250 -0.0000 -0.0000 62.8017 -74.5106 -47.7767
